<svg width="24" height="24" viewBox="0 0 24 24" fill="none" xmlns="http://www.w3.org/2000/svg">
<rect width="24" height="24" fill="#1E1E1E"/>
<g id="Dashboard" clip-path="url(#clip0_2_2)">
<rect width="1440" height="1841" transform="translate(-23 -475)" fill="white"/>
<g id="Sidebar">
<rect width="249" height="1024" transform="translate(-24 -475)" fill="white"/>
<g id="Menu">
<g id="list menu">
<g id="Menu_2">
<g id="Content">
<g id="streamline-plump:file-report">
<g id="Group">
<path id="Vector" d="M7.21429 17.2857H17.4286M7.21429 14.0357H17.4286M14.8137 1.53714C15.2302 1.66714 16.5673 2.19736 18.4987 4.08096C20.3187 5.85593 20.907 7.11646 21.0797 7.59561C21.1182 8.63607 21.1429 9.84786 21.1429 11.25C21.1429 14.9945 20.9687 17.3804 20.81 18.7779C20.6939 19.8003 19.9264 20.5645 18.905 20.6838C17.598 20.8366 15.4632 21 12.3214 21C9.17961 21 7.04482 20.8366 5.73786 20.6843C4.71643 20.5645 3.94896 19.8003 3.83289 18.7779C3.67411 17.3804 3.5 14.994 3.5 11.25C3.5 7.506 3.67411 5.11957 3.83289 3.72207C3.94896 2.69971 4.71643 1.9355 5.73786 1.81571C7.04482 1.66389 9.17961 1.5 12.3214 1.5C13.2361 1.5 14.0653 1.51393 14.8137 1.53714Z" stroke="#606060" stroke-width="1.2" stroke-linecap="round" stroke-linejoin="round"/>
<path id="Vector_2" d="M7.21429 10.7244C8.40843 8.89978 9.40432 8.09842 9.95172 7.76228C10.2103 7.60303 10.5228 7.70703 10.6574 7.97956C10.9653 8.60403 11.2564 9.46203 11.4639 10.1431C11.5865 10.5424 12.1696 10.6283 12.4264 10.2987C13.4599 8.97267 14.875 7.76785 14.875 7.76785M16.7633 8.61285C16.9675 7.53385 16.9754 6.58717 16.9582 6.08574C16.9553 5.98023 16.9121 5.87984 16.8375 5.80516C16.763 5.73048 16.6626 5.68718 16.5571 5.68413C15.71 5.65849 14.8627 5.72386 14.0295 5.87914C13.6795 5.94553 13.5634 6.37221 13.816 6.62431L16.0185 8.82735C16.2706 9.07946 16.6969 8.96292 16.7633 8.61285Z" stroke="#606060" stroke-width="1.2" stroke-linecap="round" stroke-linejoin="round"/>
</g>
</g>
</g>
</g>
</g>
</g>
</g>
</g>
<defs>
<clipPath id="clip0_2_2">
<rect width="1440" height="1841" fill="white" transform="translate(-23 -475)"/>
</clipPath>
</defs>
</svg>
