<svg width="24" height="24" viewBox="0 0 24 24" fill="none" xmlns="http://www.w3.org/2000/svg">
<rect width="24" height="24" fill="#1E1E1E"/>
<g id="Dashboard" clip-path="url(#clip0_2_2)">
<rect width="1440" height="1841" transform="translate(-23 -425)" fill="white"/>
<g id="Sidebar">
<rect width="249" height="1024" transform="translate(-24 -425)" fill="white"/>
<g id="Menu">
<g id="list menu">
<g id="Menu_2">
<g id="carbon:cloud-monitoring">
<g id="Group 252">
<path id="Vector" d="M20.6429 11.0709V15.2574H4.35714V4.09335H9.10714V2.69785H4.35714C3.99721 2.69785 3.65201 2.84487 3.3975 3.10658C3.14298 3.36829 3 3.72324 3 4.09335V15.2574C3 15.6275 3.14298 15.9824 3.3975 16.2441C3.65201 16.5058 3.99721 16.6529 4.35714 16.6529H9.78571V19.4439H7.07143V20.8394H17.9286V19.4439H15.2143V16.6529H20.6429C21.0028 16.6529 21.348 16.5058 21.6025 16.2441C21.857 15.9824 22 15.6275 22 15.2574V11.0709H20.6429ZM13.8571 19.4439H11.1429V16.6529H13.8571V19.4439Z" fill="#606060"/>
<path id="Vector_2" d="M13.8571 12.4663H13.8504C13.7041 12.4648 13.5623 12.4147 13.4461 12.3235C13.3298 12.2324 13.2452 12.105 13.205 11.9605L11.9884 7.58209H9.10714V6.18658H12.5C12.6475 6.1865 12.791 6.23583 12.9088 6.32711C13.0266 6.41839 13.1122 6.54664 13.1528 6.69245L13.8816 9.316L15.9234 2.49199C15.9671 2.35016 16.0533 2.22618 16.1697 2.13781C16.2861 2.04945 16.4267 2.00123 16.5714 2.00008C16.7144 1.99787 16.8543 2.0431 16.9703 2.12907C17.0863 2.21504 17.1722 2.33717 17.2154 2.47734L18.4171 6.18658H22V7.58209H17.9286C17.7861 7.58212 17.6472 7.53604 17.5316 7.45038C17.4161 7.36472 17.3296 7.24382 17.2846 7.10482L16.5972 4.98366L14.5059 11.9737C14.4632 12.1164 14.3771 12.2412 14.2604 12.3299C14.1436 12.4185 14.0023 12.4664 13.8571 12.4663Z" fill="#606060"/>
</g>
</g>
</g>
</g>
</g>
</g>
</g>
<defs>
<clipPath id="clip0_2_2">
<rect width="1440" height="1841" fill="white" transform="translate(-23 -425)"/>
</clipPath>
</defs>
</svg>
