<svg width="24" height="24" viewBox="0 0 24 24" fill="none" xmlns="http://www.w3.org/2000/svg">
<path d="M15.8371 4.7991V2.87946M7.19866 4.7991V2.87946M3.11941 7.67857H19.9163M2.87946 9.64045C2.87946 7.61042 2.87946 6.59493 3.29794 5.81939C3.67634 5.12765 4.26352 4.57307 4.97571 4.23473C5.79732 3.83928 6.87232 3.83928 9.02232 3.83928H14.0134C16.1634 3.83928 17.2384 3.83928 18.06 4.23473C18.7828 4.58218 19.3692 5.13696 19.7378 5.81843C20.1563 6.59589 20.1563 7.61138 20.1563 9.64141V14.3561C20.1563 16.3861 20.1563 17.4016 19.7378 18.1771C19.3594 18.8689 18.7722 19.4234 18.06 19.7618C17.2384 20.1563 16.1634 20.1563 14.0134 20.1563H9.02232C6.87232 20.1563 5.79732 20.1563 4.97571 19.7608C4.26366 19.4227 3.6765 18.8685 3.29794 18.1771C2.87946 17.3997 2.87946 16.3842 2.87946 14.3541V9.64045Z" stroke="#606060" stroke-width="1.5" stroke-linecap="round" stroke-linejoin="round"/>
</svg>
