<svg width="21" height="21" viewBox="0 0 21 21" fill="none" xmlns="http://www.w3.org/2000/svg">
<g clip-path="url(#clip0_151_297)">
<g clip-path="url(#clip1_151_297)">
<path d="M14.6 2.09998H5M12.8 5.69998H6.8M2 11.7H4.4M3.2 10.5V12.9M12.8 17.1C12.8 17.8956 12.4839 18.6587 11.9213 19.2213C11.3587 19.7839 10.5956 20.1 9.8 20.1C9.00435 20.1 8.24129 19.7839 7.67868 19.2213C7.11607 18.6587 6.8 17.8956 6.8 17.1V2.09998H12.8V17.1ZM17.6 6.89997C17.9183 6.89997 18.2235 6.77355 18.4485 6.5485C18.6736 6.32346 18.8 6.01823 18.8 5.69998C18.8 5.38172 18.6736 5.07649 18.4485 4.85145C18.2235 4.6264 17.9183 4.49998 17.6 4.49998C17.2817 4.49998 16.9765 4.6264 16.7515 4.85145C16.5264 5.07649 16.4 5.38172 16.4 5.69998C16.4 6.01823 16.5264 6.32346 16.7515 6.5485C16.9765 6.77355 17.2817 6.89997 17.6 6.89997Z" stroke="white" stroke-width="1.5" stroke-linecap="round" stroke-linejoin="round"/>
<path d="M10.4878 8.61211C10.5441 8.66837 10.6204 8.69998 10.7 8.69998C10.7795 8.69998 10.8558 8.66837 10.9121 8.61211C10.9684 8.55585 11 8.47954 11 8.39998C11 8.32041 10.9684 8.2441 10.9121 8.18784C10.8558 8.13158 10.7795 8.09998 10.7 8.09998C10.6204 8.09998 10.5441 8.13158 10.4878 8.18784C10.4316 8.2441 10.4 8.32041 10.4 8.39998C10.4 8.47954 10.4316 8.55585 10.4878 8.61211Z" stroke="white" stroke-width="1.5"/>
<path d="M8.68784 12.2121C8.7441 12.2684 8.82041 12.3 8.89998 12.3C8.97954 12.3 9.05585 12.2684 9.11211 12.2121C9.16837 12.1558 9.19998 12.0795 9.19998 12C9.19998 11.9204 9.16837 11.8441 9.11211 11.7878C9.05585 11.7316 8.97954 11.7 8.89998 11.7C8.82041 11.7 8.7441 11.7316 8.68784 11.7878C8.63158 11.8441 8.59998 11.9204 8.59998 12C8.59998 12.0795 8.63158 12.1558 8.68784 12.2121Z" stroke="white" stroke-width="1.5"/>
<path d="M9.88784 15.8121C9.9441 15.8684 10.0204 15.9 10.1 15.9C10.1795 15.9 10.2558 15.8684 10.3121 15.8121C10.3684 15.7558 10.4 15.6795 10.4 15.6C10.4 15.5204 10.3684 15.4441 10.3121 15.3878C10.2558 15.3316 10.1795 15.3 10.1 15.3C10.0204 15.3 9.9441 15.3316 9.88784 15.3878C9.83158 15.4441 9.79998 15.5204 9.79998 15.6C9.79998 15.6795 9.83158 15.7558 9.88784 15.8121Z" stroke="white" stroke-width="1.5"/>
</g>
</g>
<defs>
<clipPath id="clip0_151_297">
<rect width="20.8" height="20.8" fill="white"/>
</clipPath>
<clipPath id="clip1_151_297">
<rect width="19.2" height="19.2" fill="white" transform="translate(0.800049 1.5)"/>
</clipPath>
</defs>
</svg>
