<svg width="60" height="60" viewBox="0 0 60 60" fill="none" xmlns="http://www.w3.org/2000/svg">
<path opacity="0.21" d="M37 0C49.7025 0 60 10.2975 60 23V37C60 49.7025 49.7025 60 37 60H23C10.2975 60 0 49.7025 0 37V23C0 10.2975 10.2975 0 23 0H37Z" fill="#FEC53D"/>
<path d="M18 43.3333L20 41.3333L22 43.3333L24 41.3333L26 43.3333L28.1067 41.2267C28.2933 41.48 28.5067 41.7067 28.7333 41.9333C30.4826 43.6564 32.8403 44.6209 35.2956 44.6179C37.751 44.6149 40.1063 43.6445 41.8513 41.9171C43.5962 40.1897 44.5903 37.8443 44.6181 35.3891C44.646 32.9339 43.7053 30.5665 42 28.8V16.6667L40 18.6667L38 16.6667L36 18.6667L34 16.6667L32 18.6667L30 16.6667L28 18.6667L26 16.6667L24 18.6667L22 16.6667L20 18.6667L18 16.6667V43.3333ZM41.8 35.3333C41.8 36.1867 41.64 37.0267 41.3333 37.8133C40.9867 38.5867 40.5067 39.3333 39.9067 39.9067C39.3333 40.5067 38.5867 40.9867 37.8133 41.3333C37.0267 41.64 36.1867 41.8 35.3333 41.8C31.76 41.8 28.8667 38.9067 28.8667 35.3333C28.8667 33.6133 29.5467 32 30.76 30.76C32 29.5467 33.6133 28.8667 35.3333 28.8667C38.8933 28.8667 41.8 31.76 41.8 35.3333ZM34 36.2533V31.3333H36V35.0933L39.2533 36.9733L38.2533 38.7067L34 36.2533Z" fill="#FEC53D"/>
</svg>
