<svg width="60" height="60" viewBox="0 0 60 60" fill="none" xmlns="http://www.w3.org/2000/svg">
<path opacity="0.21" d="M37 0C49.7025 0 60 10.2975 60 23V37C60 49.7025 49.7025 60 37 60H23C10.2975 60 0 49.7025 0 37V23C0 10.2975 10.2975 0 23 0H37Z" fill="#DC6847"/>
<g clip-path="url(#clip0_3_1529)">
<path d="M36.3333 33.4167H38.5208V37.5292L42.0791 39.5854L40.9854 41.4813L36.3333 38.7979V33.4167ZM37.7916 30.5C35.8578 30.5 34.0031 31.2682 32.6357 32.6357C31.2682 34.0031 30.5 35.8578 30.5 37.7917C30.5 39.7255 31.2682 41.5802 32.6357 42.9477C34.0031 44.3151 35.8578 45.0833 37.7916 45.0833C39.7255 45.0833 41.5802 44.3151 42.9476 42.9477C44.3151 41.5802 45.0833 39.7255 45.0833 37.7917C45.0833 35.8578 44.3151 34.0031 42.9476 32.6357C41.5802 31.2682 39.7255 30.5 37.7916 30.5ZM37.7916 27.5833C40.4991 27.5833 43.0956 28.6589 45.01 30.5733C46.9245 32.4877 48 35.0843 48 37.7917C48 40.4991 46.9245 43.0956 45.01 45.0101C43.0956 46.9245 40.4991 48 37.7916 48C33.7229 48 30.2083 45.6083 28.5604 42.1667H14.4583V37.7917C14.4583 33.9125 22.2312 31.9583 26.125 31.9583C27 31.9583 28.0791 32.0604 29.2166 32.25C30.1414 30.8169 31.411 29.6387 32.9092 28.8234C34.4073 28.0081 36.086 27.5817 37.7916 27.5833ZM27.5833 37.7917C27.5833 36.7708 27.7291 35.7792 28.0062 34.875C27.3937 34.7729 26.7521 34.7292 26.125 34.7292C21.7937 34.7292 17.2291 36.8583 17.2291 37.7917V39.3958H27.7146C27.6287 38.8654 27.5848 38.329 27.5833 37.7917ZM26.125 18.8333C27.6721 18.8333 29.1558 19.4479 30.2498 20.5419C31.3437 21.6358 31.9583 23.1196 31.9583 24.6667C31.9583 26.2138 31.3437 27.6975 30.2498 28.7915C29.1558 29.8854 27.6721 30.5 26.125 30.5C24.5779 30.5 23.0942 29.8854 22.0002 28.7915C20.9062 27.6975 20.2916 26.2138 20.2916 24.6667C20.2916 23.1196 20.9062 21.6358 22.0002 20.5419C23.0942 19.4479 24.5779 18.8333 26.125 18.8333ZM26.125 21.6042C25.3128 21.6042 24.5338 21.9268 23.9595 22.5012C23.3851 23.0755 23.0625 23.8545 23.0625 24.6667C23.0625 25.4789 23.3851 26.2579 23.9595 26.8322C24.5338 27.4065 25.3128 27.7292 26.125 27.7292C26.9372 27.7292 27.7162 27.4065 28.2905 26.8322C28.8648 26.2579 29.1875 25.4789 29.1875 24.6667C29.1875 23.8545 28.8648 23.0755 28.2905 22.5012C27.7162 21.9268 26.9372 21.6042 26.125 21.6042Z" fill="#DC6847"/>
</g>
<defs>
<clipPath id="clip0_3_1529">
<rect width="35" height="35" fill="white" transform="translate(13 13)"/>
</clipPath>
</defs>
</svg>
