<svg width="62" height="60" viewBox="0 0 62 60" fill="none" xmlns="http://www.w3.org/2000/svg">
<path opacity="0.21" d="M38.7139 0C51.4164 0 61.7139 10.2975 61.7139 23V37C61.7139 49.7025 51.4164 60 38.7139 60H23C10.2975 60 0 49.7025 0 37V23C0 10.2975 10.2975 0 23 0H38.7139Z" fill="#4AD991"/>
<path d="M28.3333 36.6667L23 31.3333L24.88 29.4533L28.3333 32.8933L37.12 24.1067L39 26M31 15.3333L19 20.6667V28.6667C19 36.0667 24.12 42.9867 31 44.6667C37.88 42.9867 43 36.0667 43 28.6667V20.6667L31 15.3333Z" fill="#4AD991"/>
</svg>
