<svg width="28" height="28" viewBox="0 0 28 28" fill="none" xmlns="http://www.w3.org/2000/svg">
<rect x="0.5" y="0.5" width="27" height="27" rx="7.5" stroke="#0556CF"/>
<path d="M22 8.09091V11.0455C22 11.2022 21.9352 11.3525 21.8198 11.4633C21.7044 11.5741 21.5478 11.6364 21.3846 11.6364C21.2214 11.6364 21.0649 11.5741 20.9495 11.4633C20.8341 11.3525 20.7692 11.2022 20.7692 11.0455V8.68182H18.3077C18.1445 8.68182 17.988 8.61956 17.8726 8.50874C17.7571 8.39793 17.6923 8.24763 17.6923 8.09091C17.6923 7.93419 17.7571 7.78389 17.8726 7.67307C17.988 7.56226 18.1445 7.5 18.3077 7.5H21.3846C21.5478 7.5 21.7044 7.56226 21.8198 7.67307C21.9352 7.78389 22 7.93419 22 8.09091ZM9.69231 19.3182H7.23077V16.9545C7.23077 16.7978 7.16593 16.6475 7.05053 16.5367C6.93512 16.4259 6.77859 16.3636 6.61538 16.3636C6.45217 16.3636 6.29565 16.4259 6.18024 16.5367C6.06483 16.6475 6 16.7978 6 16.9545V19.9091C6 20.0658 6.06483 20.2161 6.18024 20.3269C6.29565 20.4377 6.45217 20.5 6.61538 20.5H9.69231C9.85552 20.5 10.012 20.4377 10.1275 20.3269C10.2429 20.2161 10.3077 20.0658 10.3077 19.9091C10.3077 19.7524 10.2429 19.6021 10.1275 19.4913C10.012 19.3804 9.85552 19.3182 9.69231 19.3182ZM21.3846 16.3636C21.2214 16.3636 21.0649 16.4259 20.9495 16.5367C20.8341 16.6475 20.7692 16.7978 20.7692 16.9545V19.3182H18.3077C18.1445 19.3182 17.988 19.3804 17.8726 19.4913C17.7571 19.6021 17.6923 19.7524 17.6923 19.9091C17.6923 20.0658 17.7571 20.2161 17.8726 20.3269C17.988 20.4377 18.1445 20.5 18.3077 20.5H21.3846C21.5478 20.5 21.7044 20.4377 21.8198 20.3269C21.9352 20.2161 22 20.0658 22 19.9091V16.9545C22 16.7978 21.9352 16.6475 21.8198 16.5367C21.7044 16.4259 21.5478 16.3636 21.3846 16.3636ZM6.61538 11.6364C6.77859 11.6364 6.93512 11.5741 7.05053 11.4633C7.16593 11.3525 7.23077 11.2022 7.23077 11.0455V8.68182H9.69231C9.85552 8.68182 10.012 8.61956 10.1275 8.50874C10.2429 8.39793 10.3077 8.24763 10.3077 8.09091C10.3077 7.93419 10.2429 7.78389 10.1275 7.67307C10.012 7.56226 9.85552 7.5 9.69231 7.5H6.61538C6.45217 7.5 6.29565 7.56226 6.18024 7.67307C6.06483 7.78389 6 7.93419 6 8.09091V11.0455C6 11.2022 6.06483 11.3525 6.18024 11.4633C6.29565 11.5741 6.45217 11.6364 6.61538 11.6364ZM10.3077 10.4545C10.1445 10.4545 9.98796 10.5168 9.87255 10.6276C9.75714 10.7384 9.69231 10.8887 9.69231 11.0455V16.9545C9.69231 17.1113 9.75714 17.2616 9.87255 17.3724C9.98796 17.4832 10.1445 17.5455 10.3077 17.5455C10.4709 17.5455 10.6274 17.4832 10.7428 17.3724C10.8582 17.2616 10.9231 17.1113 10.9231 16.9545V11.0455C10.9231 10.8887 10.8582 10.7384 10.7428 10.6276C10.6274 10.5168 10.4709 10.4545 10.3077 10.4545ZM18.3077 16.9545V11.0455C18.3077 10.8887 18.2429 10.7384 18.1275 10.6276C18.012 10.5168 17.8555 10.4545 17.6923 10.4545C17.5291 10.4545 17.3726 10.5168 17.2572 10.6276C17.1418 10.7384 17.0769 10.8887 17.0769 11.0455V16.9545C17.0769 17.1113 17.1418 17.2616 17.2572 17.3724C17.3726 17.4832 17.5291 17.5455 17.6923 17.5455C17.8555 17.5455 18.012 17.4832 18.1275 17.3724C18.2429 17.2616 18.3077 17.1113 18.3077 16.9545ZM15.2308 10.4545C15.0676 10.4545 14.911 10.5168 14.7956 10.6276C14.6802 10.7384 14.6154 10.8887 14.6154 11.0455V16.9545C14.6154 17.1113 14.6802 17.2616 14.7956 17.3724C14.911 17.4832 15.0676 17.5455 15.2308 17.5455C15.394 17.5455 15.5505 17.4832 15.6659 17.3724C15.7813 17.2616 15.8462 17.1113 15.8462 16.9545V11.0455C15.8462 10.8887 15.7813 10.7384 15.6659 10.6276C15.5505 10.5168 15.394 10.4545 15.2308 10.4545ZM12.7692 10.4545C12.606 10.4545 12.4495 10.5168 12.3341 10.6276C12.2187 10.7384 12.1538 10.8887 12.1538 11.0455V16.9545C12.1538 17.1113 12.2187 17.2616 12.3341 17.3724C12.4495 17.4832 12.606 17.5455 12.7692 17.5455C12.9324 17.5455 13.089 17.4832 13.2044 17.3724C13.3198 17.2616 13.3846 17.1113 13.3846 16.9545V11.0455C13.3846 10.8887 13.3198 10.7384 13.2044 10.6276C13.089 10.5168 12.9324 10.4545 12.7692 10.4545Z" fill="#0556CF"/>
</svg>
