<svg width="28" height="28" viewBox="0 0 28 28" fill="none" xmlns="http://www.w3.org/2000/svg">
<rect width="28" height="28" rx="8" fill="#D5D5D5"/>
<path d="M11.472 17.0991L20.241 8.79399C20.448 8.598 20.6894 8.5 20.9653 8.5C21.2412 8.5 21.4827 8.598 21.6896 8.79399C21.8965 8.98998 22 9.22288 22 9.49269C22 9.76251 21.8965 9.99509 21.6896 10.1904L12.1962 19.206C11.9893 19.402 11.7479 19.5 11.472 19.5C11.196 19.5 10.9546 19.402 10.7477 19.206L6.29847 14.9922C6.09153 14.7962 5.9922 14.5636 6.00048 14.2945C6.00876 14.0253 6.11671 13.7924 6.32434 13.5958C6.53197 13.3991 6.77788 13.3011 7.06208 13.3018C7.34627 13.3024 7.59184 13.4004 7.79878 13.5958L11.472 17.0991Z" fill="white"/>
</svg>
