<svg width="28" height="28" viewBox="0 0 28 28" fill="none" xmlns="http://www.w3.org/2000/svg">
<rect width="28" height="28" rx="8" fill="#0556CF"/>
<path d="M13.9996 7.5C17.9869 7.5 21.3042 10.3022 22 14C21.3049 17.6978 17.9869 20.5 13.9996 20.5C10.0124 20.5 6.69511 17.6978 6 14C6.69511 10.3022 10.0124 7.5 13.9996 7.5ZM13.9996 19.0556C15.5079 19.0554 16.9714 18.5552 18.1506 17.6367C19.3299 16.7183 20.1549 15.4361 20.4907 14C20.154 12.5648 19.3286 11.2837 18.1496 10.3662C16.9705 9.44865 15.5076 8.94903 14 8.94903C12.4924 8.94903 11.0295 9.44865 9.85044 10.3662C8.67138 11.2837 7.84599 12.5648 7.50927 14C7.84506 15.436 8.67 16.7181 9.84907 17.6365C11.0281 18.5549 12.4915 19.0552 13.9996 19.0556ZM13.9996 17.25C13.1171 17.25 12.2707 16.9076 11.6466 16.2981C11.0226 15.6886 10.672 14.862 10.672 14C10.672 13.138 11.0226 12.3114 11.6466 11.7019C12.2707 11.0924 13.1171 10.75 13.9996 10.75C14.8822 10.75 15.7286 11.0924 16.3526 11.7019C16.9767 12.3114 17.3273 13.138 17.3273 14C17.3273 14.862 16.9767 15.6886 16.3526 16.2981C15.7286 16.9076 14.8822 17.25 13.9996 17.25ZM13.9996 15.8056C14.4899 15.8056 14.9602 15.6153 15.3068 15.2767C15.6535 14.9381 15.8483 14.4789 15.8483 14C15.8483 13.5211 15.6535 13.0619 15.3068 12.7233C14.9602 12.3847 14.4899 12.1944 13.9996 12.1944C13.5093 12.1944 13.0391 12.3847 12.6924 12.7233C12.3457 13.0619 12.1509 13.5211 12.1509 14C12.1509 14.4789 12.3457 14.9381 12.6924 15.2767C13.0391 15.6153 13.5093 15.8056 13.9996 15.8056Z" fill="white"/>
</svg>
