<svg width="28" height="28" viewBox="0 0 28 28" fill="none" xmlns="http://www.w3.org/2000/svg">
<rect width="28" height="28" rx="8" fill="#FBE6CD"/>
<path d="M6.65008 21.5834C6.10466 21.5834 5.63775 21.3977 5.24935 21.0265C4.86095 20.6552 4.66675 20.2089 4.66675 19.6875V8.31252C4.66675 7.79117 4.86095 7.34486 5.24935 6.97359C5.63775 6.60232 6.10466 6.41669 6.65008 6.41669H22.5167C23.0622 6.41669 23.5291 6.60232 23.9175 6.97359C24.3059 7.34486 24.5001 7.79117 24.5001 8.31252V19.6875C24.5001 20.2089 24.3059 20.6552 23.9175 21.0265C23.5291 21.3977 23.0622 21.5834 22.5167 21.5834H6.65008ZM14.5834 14.9479L6.65008 10.2084V19.6875H22.5167V10.2084L14.5834 14.9479ZM14.5834 13.0521L22.5167 8.31252H6.65008L14.5834 13.0521ZM6.65008 10.2084V8.31252V19.6875V10.2084Z" fill="#DC6847"/>
</svg>
