<svg width="20" height="16" viewBox="0 0 20 16" fill="none" xmlns="http://www.w3.org/2000/svg">
<path d="M1.98333 15.1667C1.43792 15.1667 0.971007 14.981 0.582604 14.6098C0.194201 14.2385 0 13.7922 0 13.2708V1.89583C0 1.37448 0.194201 0.928168 0.582604 0.556901C0.971007 0.185634 1.43792 0 1.98333 0H17.85C18.3954 0 18.8623 0.185634 19.2507 0.556901C19.6391 0.928168 19.8333 1.37448 19.8333 1.89583V13.2708C19.8333 13.7922 19.6391 14.2385 19.2507 14.6098C18.8623 14.981 18.3954 15.1667 17.85 15.1667H1.98333ZM9.91667 8.53125L1.98333 3.79167V13.2708H17.85V3.79167L9.91667 8.53125ZM9.91667 6.63542L17.85 1.89583H1.98333L9.91667 6.63542ZM1.98333 3.79167V1.89583V13.2708V3.79167Z" fill="#DC6847"/>
</svg>
