<svg width="22" height="22" viewBox="0 0 22 22" fill="none" xmlns="http://www.w3.org/2000/svg">
<path d="M17.4625 4.50083C16.622 3.6521 15.6209 2.97913 14.5177 2.52116C13.4145 2.06319 12.2311 1.82937 11.0367 1.83333C6.03165 1.83333 1.95248 5.9125 1.95248 10.9175C1.95248 12.5217 2.37415 14.08 3.16248 15.455L1.87915 20.1667L6.69165 18.9017C8.02082 19.6258 9.51498 20.0108 11.0367 20.0108C16.0417 20.0108 20.1208 15.9317 20.1208 10.9267C20.1208 8.4975 19.1767 6.215 17.4625 4.50083ZM11.0367 18.4708C9.67998 18.4708 8.35082 18.1042 7.18665 17.4167L6.91165 17.2517L4.05165 18.0033L4.81248 15.2167L4.62915 14.9325C3.87524 13.729 3.475 12.3377 3.47415 10.9175C3.47415 6.75583 6.86582 3.36417 11.0275 3.36417C13.0442 3.36417 14.9417 4.1525 16.3625 5.5825C17.0661 6.28271 17.6237 7.11566 18.003 8.03305C18.3822 8.95044 18.5755 9.93399 18.5717 10.9267C18.59 15.0883 15.1983 18.4708 11.0367 18.4708ZM15.18 12.8242C14.9508 12.7142 13.8325 12.1642 13.6308 12.0817C13.42 12.0083 13.2733 11.9717 13.1175 12.1917C12.9617 12.4208 12.5308 12.9342 12.4025 13.0808C12.2741 13.2367 12.1367 13.255 11.9075 13.1358C11.6783 13.0258 10.945 12.7783 10.0833 12.0083C9.40498 11.4033 8.95582 10.6608 8.81832 10.4317C8.68998 10.2025 8.79998 10.0833 8.91915 9.96416C9.01998 9.86333 9.14832 9.69833 9.25832 9.57C9.36832 9.44166 9.41415 9.34083 9.48748 9.19417C9.56082 9.03833 9.52415 8.91 9.46915 8.8C9.41415 8.69 8.95582 7.57167 8.77248 7.11333C8.58915 6.67333 8.39665 6.72833 8.25915 6.71916H7.81915C7.66332 6.71916 7.42498 6.77416 7.21415 7.00333C7.01248 7.2325 6.42582 7.7825 6.42582 8.90083C6.42582 10.0192 7.24165 11.1008 7.35165 11.2475C7.46165 11.4033 8.95582 13.695 11.2292 14.6758C11.77 14.9142 12.1917 15.0517 12.5217 15.1525C13.0625 15.3267 13.5575 15.2992 13.9517 15.2442C14.3917 15.18 15.2991 14.6942 15.4825 14.1625C15.675 13.6308 15.675 13.1817 15.6108 13.0808C15.5467 12.98 15.4092 12.9342 15.18 12.8242Z" fill="#27A895"/>
</svg>
